<svg width="320" height="62" viewBox="0 0 320 62" fill="none" xmlns="http://www.w3.org/2000/svg">
<g id="Logo">
<g id="Victoria">
<path d="M89.6953 43.4102C87.599 43.4102 85.6914 43.1758 83.9727 42.707C82.2539 42.2383 80.5612 41.4245 78.8945 40.2656V33.3906H83.3086L83.9141 37.4336C84.5 37.9284 85.3073 38.332 86.3359 38.6445C87.3646 38.944 88.4844 39.0938 89.6953 39.0938C90.724 39.0938 91.5898 38.9505 92.293 38.6641C93.0091 38.3776 93.5495 37.974 93.9141 37.4531C94.2917 36.9193 94.4805 36.2943 94.4805 35.5781C94.4805 34.901 94.3112 34.3021 93.9727 33.7812C93.6471 33.2474 93.1003 32.7656 92.332 32.3359C91.5768 31.8932 90.5482 31.4701 89.2461 31.0664C86.9935 30.4023 85.125 29.6797 83.6406 28.8984C82.1693 28.1042 81.0625 27.1602 80.3203 26.0664C79.5911 24.9596 79.2266 23.6315 79.2266 22.082C79.2266 20.5456 79.6497 19.1914 80.4961 18.0195C81.3555 16.8346 82.5404 15.9036 84.0508 15.2266C85.5612 14.5495 87.306 14.1979 89.2852 14.1719C91.4727 14.1458 93.4062 14.4062 95.0859 14.9531C96.7786 15.5 98.237 16.2617 99.4609 17.2383V23.6445H95.1836L94.4414 19.7383C93.9466 19.4258 93.276 19.1523 92.4297 18.918C91.5964 18.6836 90.6458 18.5664 89.5781 18.5664C88.6667 18.5664 87.8594 18.7031 87.1562 18.9766C86.4661 19.25 85.9193 19.6471 85.5156 20.168C85.112 20.6888 84.9102 21.3203 84.9102 22.0625C84.9102 22.7005 85.0859 23.2604 85.4375 23.7422C85.7891 24.2109 86.375 24.6602 87.1953 25.0898C88.0286 25.5065 89.1745 25.9557 90.6328 26.4375C93.7708 27.3099 96.1471 28.4622 97.7617 29.8945C99.3893 31.3268 100.203 33.2083 100.203 35.5391C100.203 37.1536 99.7669 38.5534 98.8945 39.7383C98.0221 40.9102 96.7982 41.8151 95.2227 42.4531C93.6471 43.0911 91.8047 43.4102 89.6953 43.4102ZM112.684 43.4102C110.6 43.4102 108.81 42.9544 107.312 42.043C105.815 41.1315 104.669 39.8685 103.875 38.2539C103.081 36.6263 102.684 34.7578 102.684 32.6484V32.2383C102.684 30.1419 103.081 28.2865 103.875 26.6719C104.669 25.0443 105.809 23.7747 107.293 22.8633C108.79 21.9388 110.574 21.4766 112.645 21.4766C114.741 21.4766 116.531 21.9388 118.016 22.8633C119.5 23.7747 120.639 25.0378 121.434 26.6523C122.228 28.2669 122.625 30.1289 122.625 32.2383V32.6484C122.625 34.7578 122.228 36.6263 121.434 38.2539C120.639 39.8685 119.5 41.1315 118.016 42.043C116.531 42.9544 114.754 43.4102 112.684 43.4102ZM112.684 39.0352C113.673 39.0352 114.48 38.7682 115.105 38.2344C115.73 37.7005 116.193 36.9583 116.492 36.0078C116.792 35.0443 116.941 33.9245 116.941 32.6484V32.2383C116.941 30.9883 116.792 29.888 116.492 28.9375C116.193 27.974 115.724 27.2253 115.086 26.6914C114.461 26.1445 113.647 25.8711 112.645 25.8711C111.668 25.8711 110.861 26.1445 110.223 26.6914C109.585 27.2253 109.116 27.974 108.816 28.9375C108.53 29.888 108.387 30.9883 108.387 32.2383V32.6484C108.387 33.9245 108.53 35.0443 108.816 36.0078C109.116 36.9714 109.585 37.7201 110.223 38.2539C110.861 38.7747 111.681 39.0352 112.684 39.0352ZM125.496 43V39.582L128.25 38.9961V25.8711H125.105V21.8672H128.25V19.5234C128.25 17.1536 128.927 15.3307 130.281 14.0547C131.648 12.7656 133.556 12.1211 136.004 12.1211C136.616 12.1211 137.26 12.1732 137.938 12.2773C138.615 12.3685 139.194 12.4792 139.676 12.6094L139.188 16.8477C138.875 16.7565 138.517 16.6914 138.113 16.6523C137.71 16.6003 137.299 16.5742 136.883 16.5742C135.893 16.5742 135.158 16.8281 134.676 17.3359C134.194 17.8438 133.953 18.5729 133.953 19.5234V21.8672H138.738V25.8711H133.953V38.9961L137.684 39.582V43H125.496ZM147.879 43.4102C145.783 43.4102 144.116 42.8503 142.879 41.7305C141.642 40.5977 141.023 39.0612 141.023 37.1211C141.023 35.793 141.382 34.6276 142.098 33.625C142.827 32.6224 143.895 31.8346 145.301 31.2617C146.72 30.6888 148.465 30.4023 150.535 30.4023H153.328V28.8398C153.328 27.8242 153.029 27.0039 152.43 26.3789C151.844 25.7409 150.958 25.4219 149.773 25.4219C149.161 25.4219 148.615 25.5 148.133 25.6562C147.651 25.7995 147.208 26.0078 146.805 26.2812L146.355 29.0742H142.254L142.176 23.5859C143.283 22.9609 144.48 22.4531 145.77 22.0625C147.059 21.6719 148.497 21.4766 150.086 21.4766C152.846 21.4766 155.027 22.1211 156.629 23.4102C158.23 24.6862 159.031 26.5156 159.031 28.8984V37.6094C159.031 37.8958 159.031 38.1823 159.031 38.4688C159.044 38.7422 159.07 39.0091 159.109 39.2695L161.316 39.582V43H154.246C154.103 42.6354 153.96 42.2448 153.816 41.8281C153.673 41.4115 153.569 40.9948 153.504 40.5781C152.827 41.4375 152.026 42.1276 151.102 42.6484C150.19 43.1562 149.116 43.4102 147.879 43.4102ZM149.402 39.1914C150.197 39.1914 150.952 39.0156 151.668 38.6641C152.384 38.2995 152.938 37.8242 153.328 37.2383V33.8984H150.516C149.266 33.8984 148.315 34.1849 147.664 34.7578C147.026 35.3307 146.707 36.0208 146.707 36.8281C146.707 37.5833 146.941 38.1693 147.41 38.5859C147.892 38.9896 148.556 39.1914 149.402 39.1914Z" fill="#000A1E"/>
<path d="M172.41 43.4102C170.835 43.4102 169.363 43.2604 167.996 42.9609C166.642 42.6615 165.34 42.2318 164.09 41.6719L164.031 35.6953H167.996L168.758 38.7422C169.201 38.9635 169.682 39.1393 170.203 39.2695C170.737 39.3997 171.342 39.4648 172.02 39.4648C173.296 39.4648 174.194 39.2565 174.715 38.8398C175.236 38.4232 175.496 37.9023 175.496 37.2773C175.496 36.6914 175.216 36.1771 174.656 35.7344C174.109 35.2786 173.009 34.8815 171.355 34.543C168.855 34.0221 167.013 33.2148 165.828 32.1211C164.643 31.0273 164.051 29.6276 164.051 27.9219C164.051 26.75 164.344 25.6823 164.93 24.7188C165.529 23.7552 166.434 22.9805 167.645 22.3945C168.868 21.8086 170.431 21.5156 172.332 21.5156C173.921 21.5156 175.372 21.6719 176.688 21.9844C178.016 22.2839 179.129 22.681 180.027 23.1758L180.086 28.957H176.141L175.535 26.1836C175.184 25.9232 174.767 25.7279 174.285 25.5977C173.816 25.4674 173.283 25.4023 172.684 25.4023C171.681 25.4023 170.913 25.6042 170.379 26.0078C169.845 26.4115 169.578 26.9323 169.578 27.5703C169.578 27.9349 169.669 28.2734 169.852 28.5859C170.047 28.8984 170.424 29.1914 170.984 29.4648C171.544 29.7383 172.358 29.9987 173.426 30.2461C176.043 30.8451 177.951 31.6458 179.148 32.6484C180.346 33.638 180.945 35.0312 180.945 36.8281C180.945 38.7943 180.229 40.3828 178.797 41.5938C177.378 42.8047 175.249 43.4102 172.41 43.4102ZM183.23 43V39.582L185.984 38.9961V16.5547L182.938 15.9688V12.5312H191.668V24.5625C192.332 23.5859 193.152 22.8307 194.129 22.2969C195.118 21.75 196.238 21.4766 197.488 21.4766C199.611 21.4766 201.29 22.1862 202.527 23.6055C203.777 25.0117 204.402 27.1927 204.402 30.1484V38.9961L207.137 39.582V43H196.238V39.582L198.699 38.9961V30.1094C198.699 28.5859 198.413 27.5052 197.84 26.8672C197.267 26.2292 196.427 25.9102 195.32 25.9102C194.552 25.9102 193.849 26.0729 193.211 26.3984C192.586 26.7109 192.072 27.1732 191.668 27.7852V38.9961L194.129 39.582V43H183.23ZM218.816 43.4102C216.733 43.4102 214.943 42.9544 213.445 42.043C211.948 41.1315 210.802 39.8685 210.008 38.2539C209.214 36.6263 208.816 34.7578 208.816 32.6484V32.2383C208.816 30.1419 209.214 28.2865 210.008 26.6719C210.802 25.0443 211.941 23.7747 213.426 22.8633C214.923 21.9388 216.707 21.4766 218.777 21.4766C220.874 21.4766 222.664 21.9388 224.148 22.8633C225.633 23.7747 226.772 25.0378 227.566 26.6523C228.361 28.2669 228.758 30.1289 228.758 32.2383V32.6484C228.758 34.7578 228.361 36.6263 227.566 38.2539C226.772 39.8685 225.633 41.1315 224.148 42.043C222.664 42.9544 220.887 43.4102 218.816 43.4102ZM218.816 39.0352C219.806 39.0352 220.613 38.7682 221.238 38.2344C221.863 37.7005 222.326 36.9583 222.625 36.0078C222.924 35.0443 223.074 33.9245 223.074 32.6484V32.2383C223.074 30.9883 222.924 29.888 222.625 28.9375C222.326 27.974 221.857 27.2253 221.219 26.6914C220.594 26.1445 219.78 25.8711 218.777 25.8711C217.801 25.8711 216.993 26.1445 216.355 26.6914C215.717 27.2253 215.249 27.974 214.949 28.9375C214.663 29.888 214.52 30.9883 214.52 32.2383V32.6484C214.52 33.9245 214.663 35.0443 214.949 36.0078C215.249 36.9714 215.717 37.7201 216.355 38.2539C216.993 38.7747 217.814 39.0352 218.816 39.0352ZM231.18 51.125V47.6875L233.934 47.1016V25.8906L230.887 25.3047V21.8672H239.168L239.441 24.3281C240.066 23.4167 240.822 22.7135 241.707 22.2188C242.592 21.724 243.647 21.4766 244.871 21.4766C246.577 21.4766 248.035 21.9453 249.246 22.8828C250.457 23.8073 251.382 25.1029 252.02 26.7695C252.671 28.4362 252.996 30.3828 252.996 32.6094V33.0195C252.996 35.1029 252.671 36.9258 252.02 38.4883C251.382 40.0378 250.451 41.2487 249.227 42.1211C248.016 42.9805 246.551 43.4102 244.832 43.4102C243.699 43.4102 242.697 43.2083 241.824 42.8047C240.965 42.388 240.229 41.7826 239.617 40.9883V47.1016L242.371 47.6875V51.125H231.18ZM243.133 39.0352C244.591 39.0352 245.646 38.4948 246.297 37.4141C246.961 36.3333 247.293 34.8685 247.293 33.0195V32.6094C247.293 31.2682 247.143 30.1029 246.844 29.1133C246.544 28.1107 246.082 27.3294 245.457 26.7695C244.845 26.1966 244.057 25.9102 243.094 25.9102C242.312 25.9102 241.622 26.0859 241.023 26.4375C240.438 26.7891 239.969 27.2904 239.617 27.9414V37.1992C239.969 37.7982 240.438 38.2539 241.023 38.5664C241.622 38.8789 242.326 39.0352 243.133 39.0352Z" fill="#FDBF44"/>
</g>
<g id="chair-logo">
<path id="Shape" fill-rule="evenodd" clip-rule="evenodd" d="M39.6978 31.5872H37.1455V5.43619C37.1455 2.50645 34.7622 0.123192 31.8325 0.123192H12.1675C9.23776 0.123192 6.8545 2.50645 6.8545 5.43619V31.5872H4.30219C2.45644 31.5872 0.955002 33.0886 0.955002 34.9337V42.7997C0.955002 44.6447 2.45644 46.1462 4.30219 46.1462H10.4004L6.8959 60.1629C6.71098 60.9025 7.16086 61.6519 7.90054 61.8368C8.01301 61.8651 8.12548 61.8782 8.23588 61.8782C8.85412 61.8782 9.41647 61.46 9.57379 60.8328L13.2453 46.1462H30.7554L34.4269 60.8328C34.5842 61.4594 35.1466 61.8782 35.7648 61.8782C35.8759 61.8782 35.9884 61.8651 36.1002 61.8368C36.8398 61.6519 37.289 60.9025 37.1048 60.1629L33.6003 46.1455H39.6985C41.5443 46.1455 43.0457 44.6441 43.0457 42.799V34.933C43.045 33.0879 41.5436 31.5872 39.6978 31.5872ZM9.6145 5.4355C9.6145 4.0279 10.7599 2.8825 12.1675 2.8825H31.8325C33.2408 2.8825 34.3855 4.0279 34.3855 5.4355V31.5865H9.6145V5.4355ZM39.6978 43.3862C40.0221 43.3862 40.285 43.1233 40.285 42.7997H40.2857V34.933C40.2857 34.6094 40.0221 34.3465 39.6985 34.3465H4.30219C3.97789 34.3465 3.715 34.6094 3.715 34.933V42.7997C3.715 43.1233 3.97858 43.3862 4.30219 43.3862H39.6978Z" fill="#000A1E"/>
</g>
</g>
</svg>
